# xmcd CD database file
#
# Track frame offsets:
#	150
#	9125
#	24332
#	40360
#	58335
#	72322
#	85777
#	91552
#	107840
#	114632
#	122740
#	130780
#	138032
#	147727
#	156380
#	165600
#
# Disc length: 2363 seconds
#
# Revision: 0
# Processed by: cddbd v1.5.1PL0 Copyright (c) Steve Scherf et al.
# Submitted via: CDex 1.51
#
DISCID=d4093910
DTITLE=June Christy - Through the Years
DYEAR=1995
DGENRE=Jazz
TTITLE0=I Can't Give You Anything But Love
TTITLE1=I've Got A Guy
TTITLE2=Supper Time
TTITLE3=Make Love To Me
TTITLE4=I'm Thrilled
TTITLE5=You're Blase
TTITLE6=HOw Hight The Moon
TTITLE7=Something Cool
TTITLE8=Too Marvelous For Words
TTITLE9=It Could Happen To You
TTITLE10=From This Moment On
TTITLE11=I Want To Be Happy
TTITLE12=Do I Hear A Waltz
TTITLE13=You Came A Long Way From St. Louis
TTITLE14=An Occasional Man
TTITLE15=Get Me To The Church On Time
EXTD=YEAR: 1995
EXTT0=
EXTT1=
EXTT2=
EXTT3=
EXTT4=
EXTT5=
EXTT6=
EXTT7=
EXTT8=
EXTT9=
EXTT10=
EXTT11=
EXTT12=
EXTT13=
EXTT14=
EXTT15=
PLAYORDER=
